<?xml version="1.0" standalone="no"?><!DOCTYPE svg PUBLIC "-//W3C//DTD SVG 1.1//EN" "http://www.w3.org/Graphics/SVG/1.1/DTD/svg11.dtd"><svg t="1619594396354" class="icon" viewBox="0 0 1024 1024" version="1.1" xmlns="http://www.w3.org/2000/svg" p-id="10322" xmlns:xlink="http://www.w3.org/1999/xlink" width="200" height="200"><defs><style type="text/css"></style></defs><path d="M175.93831 403.972263l0.703996 0.767994 298.621947-298.237949-54.527626-54.399626-244.798317 244.606318-108.927251-108.799252-54.463625 54.399626 162.622882 162.430883 0.767994-0.767994z m268.030158 153.598944H48.00319a35.519756 35.519756 0 0 0-35.455756 35.455756v395.517281c0 19.583865 15.871891 35.455756 35.455756 35.455756h396.029277a35.455756 35.455756 0 0 0 35.455757-35.519756v-395.517281a35.583755 35.583755 0 0 0-35.519756-35.391756z m-40.959719 392.829299H88.962908V631.106701h314.045841v319.293805z m573.052061-392.829299H580.031532a35.519756 35.519756 0 0 0-35.455756 35.455756v395.517281a35.519756 35.519756 0 0 0 35.455756 35.455756h396.029278a35.455756 35.455756 0 0 0 35.455756-35.519756v-395.517281a35.455756 35.455756 0 0 0-35.455756-35.391756z m-41.023718 392.829299H620.991251V631.106701h314.045841v319.293805zM976.06081 0.00704H580.031532a35.391757 35.391757 0 0 0-35.391756 35.391757v395.58128c0 19.519866 15.871891 35.391757 35.455756 35.391757h396.029277a35.455756 35.455756 0 0 0 35.455756-35.391757V35.398797A35.519756 35.519756 0 0 0 976.06081 0.00704z m-41.023718 392.7653H620.991251V73.542534h314.045841v319.229806z" p-id="10323" fill="#8a8a8a"></path></svg>