<?xml version="1.0" standalone="no"?><!DOCTYPE svg PUBLIC "-//W3C//DTD SVG 1.1//EN" "http://www.w3.org/Graphics/SVG/1.1/DTD/svg11.dtd"><svg t="1619516885942" class="icon" viewBox="0 0 1024 1024" version="1.1" xmlns="http://www.w3.org/2000/svg" p-id="6005" xmlns:xlink="http://www.w3.org/1999/xlink" width="200" height="200"><defs><style type="text/css"></style></defs><path d="M875.174 890.123H153.479S96 899.063 96 822.421V202.915s1.273-68.978 71.528-68.978h252.915s30.657-6.388 56.205 33.206c24.267 38.326 38.317 62.597 38.317 62.597s8.949 10.216 29.384 10.216h325.718s57.476-6.391 57.476 57.48v528.821c0.002 0 8.943 63.866-52.369 63.866z m-53.647-485.385c0-15.332-12.78-28.106-28.101-28.106H231.398c-16.602 0-29.382 12.773-29.382 28.106v2.55c0 16.606 12.781 29.382 29.382 29.382h562.028c15.321 0 28.101-12.776 28.101-29.382v-2.55z" p-id="6006" fill="#8a8a8a"></path></svg>