<?xml version="1.0" standalone="no"?><!DOCTYPE svg PUBLIC "-//W3C//DTD SVG 1.1//EN" "http://www.w3.org/Graphics/SVG/1.1/DTD/svg11.dtd"><svg t="1619516918351" class="icon" viewBox="0 0 1024 1024" version="1.1" xmlns="http://www.w3.org/2000/svg" p-id="7741" xmlns:xlink="http://www.w3.org/1999/xlink" width="200" height="200"><defs><style type="text/css"></style></defs><path d="M512 62C263.59999999999997 62 62 263.59999999999997 62 512s201.6 450 450 450 450-201.6 450-450S760.4000000000001 62 512 62zM511.54999999999995 807.1999999999998c-29.7 0-53.99999999999999-24.299999999999997-53.99999999999999-53.99999999999999 0-29.7 24.299999999999997-53.99999999999999 53.99999999999999-53.99999999999999 29.7 0 53.99999999999999 24.299999999999997 53.99999999999999 53.99999999999999C565.55 783.35 541.7 807.1999999999998 511.54999999999995 807.1999999999998zM566.45 593.45c0 29.7-24.299999999999997 53.99999999999999-53.99999999999999 53.99999999999999-29.7 0-53.99999999999999-24.299999999999997-53.99999999999999-53.99999999999999l0-323.99999999999994c0-29.7 24.299999999999997-53.99999999999999 53.99999999999999-53.99999999999999 29.7 0 53.99999999999999 24.299999999999997 53.99999999999999 53.99999999999999L566.45 593.45z" fill="#d81e06" p-id="7742"></path></svg>