<?xml version="1.0" standalone="no"?><!DOCTYPE svg PUBLIC "-//W3C//DTD SVG 1.1//EN" "http://www.w3.org/Graphics/SVG/1.1/DTD/svg11.dtd"><svg t="1619516847216" class="icon" viewBox="0 0 1024 1024" version="1.1" xmlns="http://www.w3.org/2000/svg" p-id="5830" xmlns:xlink="http://www.w3.org/1999/xlink" width="200" height="200"><defs><style type="text/css"></style></defs><path d="M544 128H256c-19.2 0-32 12.8-32 32v704c0 19.2 12.8 32 32 32h512c19.2 0 32-12.8 32-32V384H608c-35.2 0-64-28.8-64-64V128z m64 12.8V320h179.2L608 140.8zM256 64h352c9.6 0 16 3.2 22.4 9.6l224 224c6.4 6.4 9.6 12.8 9.6 22.4v544c0 54.4-41.6 96-96 96H256c-54.4 0-96-41.6-96-96V160c0-54.4 41.6-96 96-96z m64 352h160c19.2 0 32 12.8 32 32s-12.8 32-32 32H320c-19.2 0-32-12.8-32-32s12.8-32 32-32z m0 128h384c19.2 0 32 12.8 32 32s-12.8 32-32 32H320c-19.2 0-32-12.8-32-32s12.8-32 32-32z m0 128h384c19.2 0 32 12.8 32 32s-12.8 32-32 32H320c-19.2 0-32-12.8-32-32s12.8-32 32-32z" p-id="5831" fill="#8a8a8a"></path></svg>