<?xml version="1.0" standalone="no"?><!DOCTYPE svg PUBLIC "-//W3C//DTD SVG 1.1//EN" "http://www.w3.org/Graphics/SVG/1.1/DTD/svg11.dtd"><svg t="1620908613524" class="icon" viewBox="0 0 2037 1024" version="1.1" xmlns="http://www.w3.org/2000/svg" p-id="1872" xmlns:xlink="http://www.w3.org/1999/xlink" width="397.8515625" height="200"><defs><style type="text/css"></style></defs><path d="M624.56806026 906.99831424l783.84345777 0C1625.67332801 906.99831424 1803.50781236 729.20302225 1803.50781237 511.92161529c0-217.30100235-177.83448435-395.09629433-395.11589053-395.09629433l-783.84345775-1e-8c-217.28140617 0-395.07669893 177.795292-395.07669817 395.09629435C229.49136133 729.20302225 407.28665409 906.99831424 624.56806026 906.99831424zM306.36680888 511.66686655c0-180.51914812 147.6957037-328.21485182 328.21485182-328.21485182L1406.9222148 183.45201473c180.51914812 0 328.21485182 147.6957037 328.21485184 328.21485183 0 180.53874428-147.6957037 328.23444801-328.21485183 328.234448l-772.3405541 0c-180.51914811 0.01959617-328.21485182-147.6957037-328.21485183-328.234448z" p-id="1873" fill="#8a8a8a"></path><path d="M628.66364254 509.72685361m238.09245023 0a238.09245023 238.09245023 0 1 0-476.18490045 0 238.09245023 238.09245023 0 1 0 476.18490046 0Z" p-id="1874" fill="#8a8a8a"></path></svg>