<?xml version="1.0" standalone="no"?><!DOCTYPE svg PUBLIC "-//W3C//DTD SVG 1.1//EN" "http://www.w3.org/Graphics/SVG/1.1/DTD/svg11.dtd"><svg t="1619504621695" class="icon" viewBox="0 0 1024 1024" version="1.1" xmlns="http://www.w3.org/2000/svg" p-id="3928" xmlns:xlink="http://www.w3.org/1999/xlink" width="200" height="200"><defs><style type="text/css"></style></defs><path d="M363.008 183.808H243.2c-22.528 0-43.008 8.192-59.392 24.064s-24.064 36.864-24.064 59.392v119.808c0 22.528 9.728 43.008 24.064 59.392 15.872 15.872 36.864 24.064 59.392 24.064h119.808c22.528 0 43.008-9.728 59.392-24.064 15.872-15.872 24.064-36.864 24.064-59.392V267.264c0-22.528-8.192-43.008-24.064-59.392s-36.864-24.064-59.392-24.064zM363.008 553.472H243.2c-22.528 0-43.008 8.192-59.392 24.064s-24.064 36.864-24.064 59.392v119.808c0 22.528 9.728 43.008 24.064 59.392 15.872 15.872 36.864 24.064 59.392 24.064h119.808c22.528 0 43.008-9.728 59.392-24.064 15.872-15.872 24.064-36.864 24.064-59.392v-119.808c0-22.528-8.192-43.008-24.064-59.392s-36.864-24.064-59.392-24.064z" p-id="3929" fill="#8a8a8a"></path><path d="M566.272 262.144h268.8c14.336 0 25.6-11.264 25.6-25.6s-11.264-25.6-25.6-25.6h-268.8c-14.336 0-25.6 11.264-25.6 25.6 0 14.848 12.8 25.6 25.6 25.6z" p-id="3930" fill="#8a8a8a"></path><path d="M566.272 443.392h270.336c9.728 0 17.408-4.608 22.528-12.8 4.608-8.192 4.608-17.408 0-25.6s-12.8-12.8-22.528-12.8h-270.336c-14.336 0-25.6 11.264-25.6 25.6s12.8 25.6 25.6 25.6z" p-id="3931" fill="#8a8a8a"></path><path d="M566.272 630.272h270.336c14.336 0 25.6-11.264 25.6-25.6s-11.264-25.6-25.6-25.6h-270.336c-9.728 0-17.408 4.608-22.528 12.8-4.608 8.192-4.608 17.408 0 25.6 5.12 6.656 14.848 12.8 22.528 12.8z" p-id="3932" fill="#8a8a8a"></path><path d="M838.656 758.272h-271.872c-9.728 0-17.408 4.608-22.528 12.8-4.608 8.192-4.608 17.408 0 25.6s12.8 12.8 22.528 12.8h270.336c9.728 0 17.408-4.608 22.528-12.8 4.608-8.192 4.608-17.408 0-25.6-3.584-7.68-13.312-12.8-20.992-12.8z" p-id="3933" fill="#8a8a8a"></path></svg>