<?xml version="1.0" standalone="no"?><!DOCTYPE svg PUBLIC "-//W3C//DTD SVG 1.1//EN" "http://www.w3.org/Graphics/SVG/1.1/DTD/svg11.dtd"><svg t="1619594479968" class="icon" viewBox="0 0 1024 1024" version="1.1" xmlns="http://www.w3.org/2000/svg" p-id="11098" xmlns:xlink="http://www.w3.org/1999/xlink" width="200" height="200"><defs><style type="text/css"></style></defs><path d="M512 0A512 512 0 1 1 0 512 511.788604 511.788604 0 0 1 512 0z m0 73.142857A438.857143 438.857143 0 1 0 951.279934 512 438.645747 438.645747 0 0 0 512 73.142857z m261.073493 483.884393a36.571429 36.571429 0 0 1 0 73.142857H340.346821l51.791907 51.791908a36.571429 36.571429 0 0 1-51.369116 52.214698l-113.096614-113.096614a36.571429 36.571429 0 0 1 24.733278-63.418662h520.667217zM684.07597 289.611891l113.096615 113.096614a36.571429 36.571429 0 0 1-24.521883 63.418663H251.983485a36.571429 36.571429 0 0 1 0-73.142858h433.360859l-51.791908-51.791907a36.571429 36.571429 0 0 1 51.157721-52.214699z" p-id="11099" fill="#8a8a8a"></path></svg>