<?xml version="1.0" standalone="no"?><!DOCTYPE svg PUBLIC "-//W3C//DTD SVG 1.1//EN" "http://www.w3.org/Graphics/SVG/1.1/DTD/svg11.dtd"><svg t="1619490725621" class="icon" viewBox="0 0 1024 1024" version="1.1" xmlns="http://www.w3.org/2000/svg" p-id="1178" xmlns:xlink="http://www.w3.org/1999/xlink" width="200" height="200"><defs><style type="text/css"></style></defs><path d="M490.666667 716.8h401.066666c25.6 0 46.933333 21.333333 46.933334 51.2v76.8c0 25.6-21.333333 51.2-46.933334 51.2h-401.066666c-25.6 0-46.933333-21.333333-46.933334-51.2v-8.533333H174.933333c-17.066667 0-29.866667-12.8-29.866666-29.866667V307.2h-12.8C106.666667 307.2 85.333333 281.6 85.333333 256V179.2C85.333333 149.333333 106.666667 128 132.266667 128H213.333333c25.6 0 46.933333 21.333333 46.933334 51.2V256c0 25.6-21.333333 51.2-46.933334 51.2h-12.8v179.2h238.933334v-8.533333c0-25.6 21.333333-51.2 46.933333-51.2h401.066667c25.6 0 46.933333 21.333333 46.933333 51.2V554.666667c0 25.6-21.333333 51.2-46.933333 51.2h-401.066667c-25.6 0-46.933333-21.333333-46.933333-51.2v-8.533334H200.533333v234.666667h238.933334V768c0-25.6 21.333333-51.2 51.2-51.2z m401.066666-409.6H366.933333c-29.866667 0-51.2-25.6-51.2-51.2V179.2c0-29.866667 21.333333-51.2 51.2-51.2h524.8c25.6 0 46.933333 21.333333 46.933334 51.2V256c0 25.6-21.333333 51.2-46.933334 51.2z" p-id="1179" fill="#8a8a8a"></path></svg>